<svg width="36" height="36" viewBox="0 0 36 36" fill="none" xmlns="http://www.w3.org/2000/svg">
<path fill-rule="evenodd" clip-rule="evenodd" d="M1.50002 4.257C1.50002 3.5258 1.79049 2.82455 2.30753 2.30751C2.82457 1.79047 3.52582 1.5 4.25702 1.5H31.74C32.1024 1.49941 32.4613 1.5703 32.7962 1.7086C33.1312 1.84691 33.4355 2.04992 33.6919 2.30601C33.9483 2.5621 34.1516 2.86624 34.2903 3.20102C34.4289 3.5358 34.5002 3.89464 34.5 4.257V31.74C34.5004 32.1024 34.4293 32.4614 34.2909 32.7963C34.1524 33.1313 33.9493 33.4356 33.693 33.692C33.4368 33.9483 33.1326 34.1516 32.7977 34.2903C32.4629 34.4289 32.104 34.5002 31.7415 34.5H4.25702C3.89484 34.5 3.53621 34.4286 3.20162 34.29C2.86703 34.1513 2.56303 33.9481 2.307 33.692C2.05097 33.4358 1.84792 33.1317 1.70946 32.797C1.57099 32.4624 1.49983 32.1037 1.50002 31.7415V4.257ZM14.562 14.082H19.0305V16.326C19.6755 15.036 21.3255 13.875 23.805 13.875C28.5585 13.875 29.685 16.4445 29.685 21.159V29.892H24.8745V22.233C24.8745 19.548 24.2295 18.033 22.5915 18.033C20.319 18.033 19.374 19.6665 19.374 22.233V29.892H14.562V14.082ZM6.31202 29.6865H11.124V13.875H6.31202V29.685V29.6865ZM11.8125 8.718C11.8216 9.13001 11.7483 9.53968 11.5969 9.92297C11.4455 10.3063 11.2191 10.6555 10.9309 10.9501C10.6427 11.2446 10.2986 11.4787 9.91871 11.6385C9.53884 11.7983 9.13088 11.8806 8.71877 11.8806C8.30666 11.8806 7.89871 11.7983 7.51884 11.6385C7.13898 11.4787 6.79486 11.2446 6.50668 10.9501C6.2185 10.6555 5.99206 10.3063 5.84066 9.92297C5.68926 9.53968 5.61595 9.13001 5.62502 8.718C5.64283 7.90928 5.9766 7.13969 6.55485 6.57403C7.1331 6.00837 7.90986 5.69163 8.71877 5.69163C9.52769 5.69163 10.3044 6.00837 10.8827 6.57403C11.4609 7.13969 11.7947 7.90928 11.8125 8.718V8.718Z" fill="white"/>
</svg>
