<?xml version="1.0" encoding="utf-8"?>
<svg width="343" height="111.39" viewBox="0 0 343 111.39" fill="none" xmlns="http://www.w3.org/2000/svg">
  <rect x="81" y="36" width="177" height="34" fill="black" />
  <rect opacity="0.4" x="86" y="41" width="177" height="34" fill="black" />
  <path d="M160.736 10.69C160.136 10.03 159.336 9.49 158.336 9.07C157.336 8.63 156.196 8.41 154.916 8.41C153.036 8.41 151.666 8.77 150.806 9.49C149.946 10.19 149.516 11.15 149.516 12.37C149.516 13.21 149.726 13.87 150.146 14.35C150.566 14.83 151.206 15.23 152.066 15.55C152.946 15.85 154.066 16.15 155.426 16.45C156.946 16.77 158.256 17.15 159.356 17.59C160.456 18.03 161.306 18.63 161.906 19.39C162.506 20.13 162.806 21.14 162.806 22.42C162.806 23.72 162.476 24.8 161.816 25.66C161.156 26.52 160.246 27.16 159.086 27.58C157.926 27.98 156.606 28.18 155.126 28.18C151.806 28.18 148.956 27.15 146.576 25.09L147.626 23.38C148.386 24.18 149.426 24.87 150.746 25.45C152.086 26.03 153.566 26.32 155.186 26.32C156.866 26.32 158.186 26.01 159.146 25.39C160.106 24.77 160.586 23.85 160.586 22.63C160.586 21.75 160.346 21.05 159.866 20.53C159.386 19.99 158.666 19.55 157.706 19.21C156.746 18.87 155.566 18.54 154.166 18.22C152.686 17.88 151.436 17.5 150.416 17.08C149.416 16.66 148.656 16.11 148.136 15.43C147.616 14.75 147.356 13.83 147.356 12.67C147.356 11.35 147.676 10.24 148.316 9.34C148.976 8.42 149.876 7.73 151.016 7.27C152.156 6.79 153.466 6.55 154.946 6.55C156.346 6.55 157.606 6.77 158.726 7.21C159.846 7.63 160.856 8.23 161.756 9.01L160.736 10.69ZM172.749 28.3C171.249 28.3 169.909 27.93 168.729 27.19C167.569 26.45 166.659 25.47 165.999 24.25C165.339 23.01 165.009 21.67 165.009 20.23C165.009 18.77 165.339 17.43 165.999 16.21C166.679 14.97 167.599 13.98 168.759 13.24C169.939 12.48 171.269 12.1 172.749 12.1C174.249 12.1 175.579 12.48 176.739 13.24C177.919 13.98 178.839 14.97 179.499 16.21C180.179 17.43 180.519 18.77 180.519 20.23C180.519 21.67 180.189 23.01 179.529 24.25C178.869 25.47 177.949 26.45 176.769 27.19C175.609 27.93 174.269 28.3 172.749 28.3ZM167.079 20.26C167.079 21.42 167.329 22.48 167.829 23.44C168.349 24.38 169.039 25.13 169.899 25.69C170.759 26.23 171.709 26.5 172.749 26.5C173.789 26.5 174.739 26.22 175.599 25.66C176.459 25.1 177.149 24.34 177.669 23.38C178.189 22.42 178.449 21.36 178.449 20.2C178.449 19.04 178.189 17.98 177.669 17.02C177.149 16.06 176.459 15.3 175.599 14.74C174.739 14.18 173.789 13.9 172.749 13.9C171.729 13.9 170.789 14.19 169.929 14.77C169.069 15.33 168.379 16.09 167.859 17.05C167.339 18.01 167.079 19.08 167.079 20.26ZM184.274 32.8C184.554 32.82 184.824 32.83 185.084 32.83C185.344 32.85 185.534 32.84 185.654 32.8C185.894 32.78 186.114 32.64 186.314 32.38C186.534 32.14 186.794 31.68 187.094 31C187.414 30.34 187.844 29.34 188.384 28L181.574 12.37H183.734L189.464 25.9L194.744 12.37H196.784L188.684 32.53C188.464 33.11 188.094 33.61 187.574 34.03C187.054 34.45 186.364 34.67 185.504 34.69C185.324 34.71 185.134 34.71 184.934 34.69C184.734 34.69 184.514 34.67 184.274 34.63V32.8ZM70.6495 98V76.7H77.8795C80.1395 76.7 82.0195 77.18 83.5195 78.14C85.0395 79.08 86.1795 80.36 86.9395 81.98C87.6995 83.58 88.0795 85.36 88.0795 87.32C88.0795 89.48 87.6595 91.36 86.8195 92.96C85.9795 94.56 84.7995 95.8 83.2795 96.68C81.7595 97.56 79.9595 98 77.8795 98H70.6495ZM85.9795 87.32C85.9795 85.62 85.6595 84.11 85.0195 82.79C84.3995 81.47 83.4795 80.44 82.2595 79.7C81.0595 78.94 79.5995 78.56 77.8795 78.56H72.7495V96.14H77.8795C79.6395 96.14 81.1195 95.75 82.3195 94.97C83.5195 94.19 84.4295 93.14 85.0495 91.82C85.6695 90.5 85.9795 89 85.9795 87.32ZM91.6748 79.1V76.1H93.7148V79.1H91.6748ZM91.6748 98V82.37H93.7148V98H91.6748ZM103.338 98.3C102.058 98.3 100.868 98.09 99.768 97.67C98.688 97.23 97.738 96.59 96.918 95.75L97.758 94.31C98.638 95.13 99.518 95.73 100.398 96.11C101.298 96.47 102.248 96.65 103.248 96.65C104.448 96.65 105.428 96.41 106.188 95.93C106.968 95.43 107.358 94.72 107.358 93.8C107.358 93.18 107.168 92.71 106.788 92.39C106.428 92.05 105.898 91.78 105.198 91.58C104.518 91.38 103.698 91.15 102.738 90.89C101.658 90.59 100.748 90.28 100.008 89.96C99.288 89.62 98.738 89.2 98.358 88.7C97.998 88.18 97.818 87.51 97.818 86.69C97.818 85.69 98.068 84.85 98.568 84.17C99.088 83.49 99.788 82.98 100.668 82.64C101.568 82.28 102.568 82.1 103.668 82.1C104.868 82.1 105.928 82.29 106.848 82.67C107.768 83.05 108.518 83.58 109.098 84.26L108.108 85.64C107.568 85 106.898 84.53 106.098 84.23C105.318 83.91 104.468 83.75 103.548 83.75C102.908 83.75 102.298 83.84 101.718 84.02C101.138 84.18 100.658 84.46 100.278 84.86C99.918 85.24 99.738 85.77 99.738 86.45C99.738 87.29 100.048 87.87 100.668 88.19C101.288 88.51 102.228 88.85 103.488 89.21C104.668 89.53 105.698 89.85 106.578 90.17C107.458 90.49 108.138 90.92 108.618 91.46C109.098 91.98 109.338 92.71 109.338 93.65C109.338 95.11 108.788 96.25 107.688 97.07C106.588 97.89 105.138 98.3 103.338 98.3ZM119.46 98.3C117.96 98.3 116.62 97.93 115.44 97.19C114.26 96.45 113.33 95.46 112.65 94.22C111.97 92.98 111.63 91.62 111.63 90.14C111.63 88.68 111.96 87.34 112.62 86.12C113.3 84.9 114.23 83.93 115.41 83.21C116.59 82.47 117.93 82.1 119.43 82.1C120.97 82.1 122.32 82.47 123.48 83.21C124.64 83.95 125.54 84.93 126.18 86.15C126.84 87.35 127.17 88.67 127.17 90.11C127.17 90.43 127.16 90.7 127.14 90.92H113.76C113.86 92.04 114.18 93.04 114.72 93.92C115.26 94.78 115.95 95.47 116.79 95.99C117.63 96.49 118.55 96.74 119.55 96.74C120.57 96.74 121.53 96.48 122.43 95.96C123.33 95.44 123.97 94.76 124.35 93.92L126.12 94.4C125.8 95.16 125.3 95.84 124.62 96.44C123.96 97.02 123.19 97.48 122.31 97.82C121.43 98.14 120.48 98.3 119.46 98.3ZM113.7 89.45H125.25C125.17 88.33 124.86 87.34 124.32 86.48C123.78 85.6 123.09 84.92 122.25 84.44C121.41 83.94 120.48 83.69 119.46 83.69C118.44 83.69 117.51 83.94 116.67 84.44C115.83 84.92 115.14 85.6 114.6 86.48C114.08 87.34 113.78 88.33 113.7 89.45ZM143.457 98H141.417V89.27C141.417 87.43 141.137 86.09 140.577 85.25C140.037 84.39 139.197 83.96 138.057 83.96C137.257 83.96 136.467 84.16 135.687 84.56C134.907 84.94 134.217 85.47 133.617 86.15C133.037 86.81 132.617 87.57 132.357 88.43V98H130.317V82.37H132.177V85.91C132.797 84.77 133.707 83.85 134.907 83.15C136.107 82.45 137.407 82.1 138.807 82.1C139.967 82.1 140.887 82.38 141.567 82.94C142.247 83.48 142.727 84.26 143.007 85.28C143.307 86.28 143.457 87.47 143.457 88.85V98ZM138.777 78.86C138.177 78.86 137.667 78.76 137.247 78.56C136.847 78.36 136.467 78.16 136.107 77.96C135.747 77.76 135.357 77.66 134.937 77.66C134.497 77.66 134.167 77.77 133.947 77.99C133.747 78.21 133.607 78.44 133.527 78.68C133.467 78.9 133.437 79.04 133.437 79.1H132.177C132.177 78.98 132.207 78.78 132.267 78.5C132.347 78.2 132.487 77.88 132.687 77.54C132.887 77.2 133.167 76.91 133.527 76.67C133.887 76.43 134.347 76.31 134.907 76.31C135.467 76.31 135.937 76.42 136.317 76.64C136.697 76.84 137.067 77.05 137.427 77.27C137.807 77.47 138.247 77.57 138.747 77.57C139.267 77.57 139.647 77.46 139.887 77.24C140.127 77 140.277 76.76 140.337 76.52C140.417 76.28 140.457 76.14 140.457 76.1H141.717C141.717 76.2 141.677 76.4 141.597 76.7C141.517 76.98 141.367 77.29 141.147 77.63C140.947 77.97 140.647 78.26 140.247 78.5C139.867 78.74 139.377 78.86 138.777 78.86ZM146.548 93.5C146.548 92.54 146.828 91.71 147.388 91.01C147.948 90.29 148.718 89.73 149.698 89.33C150.698 88.93 151.848 88.73 153.148 88.73C153.908 88.73 154.698 88.8 155.518 88.94C156.338 89.06 157.068 89.23 157.708 89.45V88.13C157.708 86.81 157.318 85.76 156.538 84.98C155.758 84.2 154.678 83.81 153.298 83.81C152.478 83.81 151.658 83.97 150.838 84.29C150.018 84.59 149.168 85.04 148.288 85.64L147.508 84.2C148.528 83.5 149.528 82.98 150.508 82.64C151.488 82.28 152.488 82.1 153.508 82.1C155.428 82.1 156.948 82.65 158.068 83.75C159.188 84.85 159.748 86.37 159.748 88.31V95.54C159.748 96.08 159.998 96.36 160.498 96.38V98C160.058 98.06 159.748 98.08 159.568 98.06C159.068 98.04 158.688 97.88 158.428 97.58C158.168 97.28 158.028 96.96 158.008 96.62L157.978 95.48C157.278 96.38 156.368 97.08 155.248 97.58C154.128 98.06 152.988 98.3 151.828 98.3C150.808 98.3 149.898 98.09 149.098 97.67C148.298 97.23 147.668 96.65 147.208 95.93C146.768 95.19 146.548 94.38 146.548 93.5ZM157.018 94.7C157.478 94.16 157.708 93.66 157.708 93.2V90.92C156.328 90.38 154.888 90.11 153.388 90.11C151.928 90.11 150.748 90.4 149.848 90.98C148.948 91.56 148.498 92.35 148.498 93.35C148.498 94.21 148.828 94.99 149.488 95.69C150.168 96.39 151.108 96.74 152.308 96.74C153.288 96.74 154.198 96.55 155.038 96.17C155.898 95.79 156.558 95.3 157.018 94.7ZM163.105 90.23C163.105 88.75 163.405 87.4 164.005 86.18C164.625 84.94 165.475 83.95 166.555 83.21C167.635 82.47 168.865 82.1 170.245 82.1C171.545 82.1 172.705 82.45 173.725 83.15C174.765 83.83 175.575 84.66 176.155 85.64V76.1H178.195V95.54C178.195 96.08 178.435 96.36 178.915 96.38V98C178.515 98.06 178.205 98.08 177.985 98.06C177.545 98.04 177.165 97.88 176.845 97.58C176.545 97.26 176.395 96.9 176.395 96.5V94.97C175.775 95.99 174.935 96.8 173.875 97.4C172.815 98 171.715 98.3 170.575 98.3C169.495 98.3 168.495 98.08 167.575 97.64C166.655 97.2 165.855 96.6 165.175 95.84C164.515 95.08 164.005 94.22 163.645 93.26C163.285 92.28 163.105 91.27 163.105 90.23ZM176.155 92.63V87.8C175.895 87.08 175.475 86.43 174.895 85.85C174.315 85.25 173.655 84.78 172.915 84.44C172.195 84.08 171.475 83.9 170.755 83.9C169.635 83.9 168.655 84.21 167.815 84.83C166.995 85.43 166.355 86.22 165.895 87.2C165.435 88.16 165.205 89.17 165.205 90.23C165.205 91.35 165.455 92.39 165.955 93.35C166.475 94.31 167.175 95.08 168.055 95.66C168.935 96.22 169.925 96.5 171.025 96.5C171.705 96.5 172.415 96.33 173.155 95.99C173.915 95.63 174.575 95.16 175.135 94.58C175.715 94 176.055 93.35 176.155 92.63ZM189.477 98.3C187.977 98.3 186.637 97.93 185.457 97.19C184.297 96.45 183.387 95.47 182.727 94.25C182.067 93.01 181.737 91.67 181.737 90.23C181.737 88.77 182.067 87.43 182.727 86.21C183.407 84.97 184.327 83.98 185.487 83.24C186.667 82.48 187.997 82.1 189.477 82.1C190.977 82.1 192.307 82.48 193.467 83.24C194.647 83.98 195.567 84.97 196.227 86.21C196.907 87.43 197.247 88.77 197.247 90.23C197.247 91.67 196.917 93.01 196.257 94.25C195.597 95.47 194.677 96.45 193.497 97.19C192.337 97.93 190.997 98.3 189.477 98.3ZM183.807 90.26C183.807 91.42 184.057 92.48 184.557 93.44C185.077 94.38 185.767 95.13 186.627 95.69C187.487 96.23 188.437 96.5 189.477 96.5C190.517 96.5 191.467 96.22 192.327 95.66C193.187 95.1 193.877 94.34 194.397 93.38C194.917 92.42 195.177 91.36 195.177 90.2C195.177 89.04 194.917 87.98 194.397 87.02C193.877 86.06 193.187 85.3 192.327 84.74C191.467 84.18 190.517 83.9 189.477 83.9C188.457 83.9 187.517 84.19 186.657 84.77C185.797 85.33 185.107 86.09 184.587 87.05C184.067 88.01 183.807 89.08 183.807 90.26ZM208.459 84.17C207.099 84.21 205.899 84.59 204.859 85.31C203.839 86.03 203.119 87.02 202.699 88.28V98H200.659V82.37H202.579V86.12C203.119 85.02 203.829 84.13 204.709 83.45C205.609 82.77 206.559 82.39 207.559 82.31C207.759 82.29 207.929 82.28 208.069 82.28C208.209 82.28 208.339 82.29 208.459 82.31V84.17ZM236.951 82.37H238.961L232.241 98H230.471L227.201 90.23L223.961 98H222.191L215.471 82.37H217.451L223.151 95.9L226.031 88.85L223.391 82.4H225.221L227.201 87.47L229.211 82.4H231.011L228.401 88.85L231.281 95.9L236.951 82.37ZM247.897 98.3C246.397 98.3 245.057 97.93 243.877 97.19C242.697 96.45 241.767 95.46 241.087 94.22C240.407 92.98 240.067 91.62 240.067 90.14C240.067 88.68 240.397 87.34 241.057 86.12C241.737 84.9 242.667 83.93 243.847 83.21C245.027 82.47 246.367 82.1 247.867 82.1C249.407 82.1 250.757 82.47 251.917 83.21C253.077 83.95 253.977 84.93 254.617 86.15C255.277 87.35 255.607 88.67 255.607 90.11C255.607 90.43 255.597 90.7 255.577 90.92H242.197C242.297 92.04 242.617 93.04 243.157 93.92C243.697 94.78 244.387 95.47 245.227 95.99C246.067 96.49 246.987 96.74 247.987 96.74C249.007 96.74 249.967 96.48 250.867 95.96C251.767 95.44 252.407 94.76 252.787 93.92L254.557 94.4C254.237 95.16 253.737 95.84 253.057 96.44C252.397 97.02 251.627 97.48 250.747 97.82C249.867 98.14 248.917 98.3 247.897 98.3ZM242.137 89.45H253.687C253.607 88.33 253.297 87.34 252.757 86.48C252.217 85.6 251.527 84.92 250.687 84.44C249.847 83.94 248.917 83.69 247.897 83.69C246.877 83.69 245.947 83.94 245.107 84.44C244.267 84.92 243.577 85.6 243.037 86.48C242.517 87.34 242.217 88.33 242.137 89.45ZM266.405 98.3C265.185 98.3 264.055 97.99 263.015 97.37C261.975 96.73 261.165 95.93 260.585 94.97V98H258.755V76.1H260.795V85.64C261.495 84.58 262.335 83.73 263.315 83.09C264.295 82.43 265.435 82.1 266.735 82.1C267.835 82.1 268.815 82.33 269.675 82.79C270.555 83.25 271.305 83.87 271.925 84.65C272.545 85.41 273.015 86.28 273.335 87.26C273.655 88.22 273.815 89.21 273.815 90.23C273.815 91.69 273.485 93.03 272.825 94.25C272.185 95.47 271.305 96.45 270.185 97.19C269.065 97.93 267.805 98.3 266.405 98.3ZM265.925 96.5C267.065 96.5 268.065 96.2 268.925 95.6C269.805 95 270.495 94.23 270.995 93.29C271.495 92.33 271.745 91.31 271.745 90.23C271.745 89.13 271.505 88.1 271.025 87.14C270.565 86.18 269.915 85.4 269.075 84.8C268.235 84.2 267.265 83.9 266.165 83.9C264.945 83.9 263.865 84.29 262.925 85.07C262.005 85.85 261.295 86.76 260.795 87.8V92.66C260.895 93.38 261.225 94.03 261.785 94.61C262.345 95.19 263.005 95.65 263.765 95.99C264.525 96.33 265.245 96.5 265.925 96.5Z" fill="white" />
  <path d="M99.3897 63V41.7H108.39C109.31 41.7 110.15 41.89 110.91 42.27C111.69 42.65 112.36 43.17 112.92 43.83C113.48 44.47 113.91 45.19 114.21 45.99C114.53 46.77 114.69 47.57 114.69 48.39C114.69 49.43 114.49 50.4 114.09 51.3C113.71 52.2 113.16 52.96 112.44 53.58C111.72 54.2 110.89 54.6 109.95 54.78L115.17 63H112.8L107.79 55.14H101.49V63H99.3897ZM101.49 53.28H108.45C109.29 53.28 110.02 53.05 110.64 52.59C111.26 52.11 111.74 51.5 112.08 50.76C112.42 50.02 112.59 49.23 112.59 48.39C112.59 47.53 112.39 46.74 111.99 46.02C111.61 45.28 111.09 44.69 110.43 44.25C109.77 43.79 109.05 43.56 108.27 43.56H101.49V53.28ZM117.075 58.5C117.075 57.54 117.355 56.71 117.915 56.01C118.475 55.29 119.245 54.73 120.225 54.33C121.225 53.93 122.375 53.73 123.675 53.73C124.435 53.73 125.225 53.8 126.045 53.94C126.865 54.06 127.595 54.23 128.235 54.45V53.13C128.235 51.81 127.845 50.76 127.065 49.98C126.285 49.2 125.205 48.81 123.825 48.81C123.005 48.81 122.185 48.97 121.365 49.29C120.545 49.59 119.695 50.04 118.815 50.64L118.035 49.2C119.055 48.5 120.055 47.98 121.035 47.64C122.015 47.28 123.015 47.1 124.035 47.1C125.955 47.1 127.475 47.65 128.595 48.75C129.715 49.85 130.275 51.37 130.275 53.31V60.54C130.275 61.08 130.525 61.36 131.025 61.38V63C130.585 63.06 130.275 63.08 130.095 63.06C129.595 63.04 129.215 62.88 128.955 62.58C128.695 62.28 128.555 61.96 128.535 61.62L128.505 60.48C127.805 61.38 126.895 62.08 125.775 62.58C124.655 63.06 123.515 63.3 122.355 63.3C121.335 63.3 120.425 63.09 119.625 62.67C118.825 62.23 118.195 61.65 117.735 60.93C117.295 60.19 117.075 59.38 117.075 58.5ZM127.545 59.7C128.005 59.16 128.235 58.66 128.235 58.2V55.92C126.855 55.38 125.415 55.11 123.915 55.11C122.455 55.11 121.275 55.4 120.375 55.98C119.475 56.56 119.025 57.35 119.025 58.35C119.025 59.21 119.355 59.99 120.015 60.69C120.695 61.39 121.635 61.74 122.835 61.74C123.815 61.74 124.725 61.55 125.565 61.17C126.425 60.79 127.085 60.3 127.545 59.7ZM134.533 56.55V47.37H136.573V56.19C136.573 59.73 137.783 61.5 140.203 61.5C141.403 61.5 142.523 61.11 143.563 60.33C144.623 59.55 145.383 58.51 145.843 57.21V47.37H147.883V60.54C147.883 61.08 148.123 61.36 148.603 61.38V63C148.363 63.04 148.173 63.06 148.033 63.06C147.913 63.06 147.783 63.06 147.643 63.06C147.223 63.02 146.863 62.86 146.563 62.58C146.283 62.3 146.143 61.96 146.143 61.56L146.083 59.46C145.403 60.68 144.473 61.63 143.293 62.31C142.133 62.97 140.873 63.3 139.513 63.3C136.193 63.3 134.533 61.05 134.533 56.55ZM152.585 41.1H154.625V59.46C154.625 60.24 154.755 60.75 155.015 60.99C155.295 61.23 155.645 61.35 156.065 61.35C156.425 61.35 156.785 61.31 157.145 61.23C157.525 61.15 157.835 61.07 158.075 60.99L158.435 62.64C158.055 62.8 157.585 62.93 157.025 63.03C156.485 63.13 156.015 63.18 155.615 63.18C154.695 63.18 153.955 62.91 153.395 62.37C152.855 61.83 152.585 61.09 152.585 60.15V41.1ZM182.137 61.14V63H167.827V41.7H181.867V43.56H169.927V51.24H180.337V53.01H169.927V61.14H182.137ZM193.342 49.17C191.982 49.21 190.782 49.59 189.742 50.31C188.722 51.03 188.002 52.02 187.582 53.28V63H185.542V47.37H187.462V51.12C188.002 50.02 188.712 49.13 189.592 48.45C190.492 47.77 191.442 47.39 192.442 47.31C192.642 47.29 192.812 47.28 192.952 47.28C193.092 47.28 193.222 47.29 193.342 47.31V49.17ZM202.341 63.3C200.841 63.3 199.501 62.93 198.321 62.19C197.141 61.45 196.211 60.46 195.531 59.22C194.851 57.98 194.511 56.62 194.511 55.14C194.511 53.68 194.841 52.34 195.501 51.12C196.181 49.9 197.111 48.93 198.291 48.21C199.471 47.47 200.811 47.1 202.311 47.1C203.851 47.1 205.201 47.47 206.361 48.21C207.521 48.95 208.421 49.93 209.061 51.15C209.721 52.35 210.051 53.67 210.051 55.11C210.051 55.43 210.041 55.7 210.021 55.92H196.641C196.741 57.04 197.061 58.04 197.601 58.92C198.141 59.78 198.831 60.47 199.671 60.99C200.511 61.49 201.431 61.74 202.431 61.74C203.451 61.74 204.411 61.48 205.311 60.96C206.211 60.44 206.851 59.76 207.231 58.92L209.001 59.4C208.681 60.16 208.181 60.84 207.501 61.44C206.841 62.02 206.071 62.48 205.191 62.82C204.311 63.14 203.361 63.3 202.341 63.3ZM196.581 54.45H208.131C208.051 53.33 207.741 52.34 207.201 51.48C206.661 50.6 205.971 49.92 205.131 49.44C204.291 48.94 203.361 48.69 202.341 48.69C201.321 48.69 200.391 48.94 199.551 49.44C198.711 49.92 198.021 50.6 197.481 51.48C196.961 52.34 196.661 53.33 196.581 54.45ZM226.338 63H224.298V54.27C224.298 52.43 224.018 51.09 223.458 50.25C222.918 49.39 222.078 48.96 220.938 48.96C220.138 48.96 219.348 49.16 218.568 49.56C217.788 49.94 217.098 50.47 216.498 51.15C215.918 51.81 215.498 52.57 215.238 53.43V63H213.198V47.37H215.058V50.91C215.678 49.77 216.588 48.85 217.788 48.15C218.988 47.45 220.288 47.1 221.688 47.1C222.848 47.1 223.768 47.38 224.448 47.94C225.128 48.48 225.608 49.26 225.888 50.28C226.188 51.28 226.338 52.47 226.338 53.85V63ZM221.658 43.86C221.058 43.86 220.548 43.76 220.128 43.56C219.728 43.36 219.348 43.16 218.988 42.96C218.628 42.76 218.238 42.66 217.818 42.66C217.378 42.66 217.048 42.77 216.828 42.99C216.628 43.21 216.488 43.44 216.408 43.68C216.348 43.9 216.318 44.04 216.318 44.1H215.058C215.058 43.98 215.088 43.78 215.148 43.5C215.228 43.2 215.368 42.88 215.568 42.54C215.768 42.2 216.048 41.91 216.408 41.67C216.768 41.43 217.228 41.31 217.788 41.31C218.348 41.31 218.818 41.42 219.198 41.64C219.578 41.84 219.948 42.05 220.308 42.27C220.688 42.47 221.128 42.57 221.628 42.57C222.148 42.57 222.528 42.46 222.768 42.24C223.008 42 223.158 41.76 223.218 41.52C223.298 41.28 223.338 41.14 223.338 41.1H224.598C224.598 41.2 224.558 41.4 224.478 41.7C224.398 41.98 224.248 42.29 224.028 42.63C223.828 42.97 223.528 43.26 223.128 43.5C222.748 43.74 222.258 43.86 221.658 43.86ZM237.348 63.3C235.848 63.3 234.508 62.93 233.328 62.19C232.168 61.45 231.258 60.47 230.598 59.25C229.938 58.01 229.608 56.67 229.608 55.23C229.608 53.77 229.938 52.43 230.598 51.21C231.278 49.97 232.198 48.98 233.358 48.24C234.538 47.48 235.868 47.1 237.348 47.1C238.848 47.1 240.178 47.48 241.338 48.24C242.518 48.98 243.438 49.97 244.098 51.21C244.778 52.43 245.118 53.77 245.118 55.23C245.118 56.67 244.788 58.01 244.128 59.25C243.468 60.47 242.548 61.45 241.368 62.19C240.208 62.93 238.868 63.3 237.348 63.3ZM231.678 55.26C231.678 56.42 231.928 57.48 232.428 58.44C232.948 59.38 233.638 60.13 234.498 60.69C235.358 61.23 236.308 61.5 237.348 61.5C238.388 61.5 239.338 61.22 240.198 60.66C241.058 60.1 241.748 59.34 242.268 58.38C242.788 57.42 243.048 56.36 243.048 55.2C243.048 54.04 242.788 52.98 242.268 52.02C241.748 51.06 241.058 50.3 240.198 49.74C239.338 49.18 238.388 48.9 237.348 48.9C236.328 48.9 235.388 49.19 234.528 49.77C233.668 50.33 232.978 51.09 232.458 52.05C231.938 53.01 231.678 54.08 231.678 55.26Z" fill="black" />
  <path d="M99.3897 63V41.7H108.39C109.31 41.7 110.15 41.89 110.91 42.27C111.69 42.65 112.36 43.17 112.92 43.83C113.48 44.47 113.91 45.19 114.21 45.99C114.53 46.77 114.69 47.57 114.69 48.39C114.69 49.43 114.49 50.4 114.09 51.3C113.71 52.2 113.16 52.96 112.44 53.58C111.72 54.2 110.89 54.6 109.95 54.78L115.17 63H112.8L107.79 55.14H101.49V63H99.3897ZM101.49 53.28H108.45C109.29 53.28 110.02 53.05 110.64 52.59C111.26 52.11 111.74 51.5 112.08 50.76C112.42 50.02 112.59 49.23 112.59 48.39C112.59 47.53 112.39 46.74 111.99 46.02C111.61 45.28 111.09 44.69 110.43 44.25C109.77 43.79 109.05 43.56 108.27 43.56H101.49V53.28ZM117.075 58.5C117.075 57.54 117.355 56.71 117.915 56.01C118.475 55.29 119.245 54.73 120.225 54.33C121.225 53.93 122.375 53.73 123.675 53.73C124.435 53.73 125.225 53.8 126.045 53.94C126.865 54.06 127.595 54.23 128.235 54.45V53.13C128.235 51.81 127.845 50.76 127.065 49.98C126.285 49.2 125.205 48.81 123.825 48.81C123.005 48.81 122.185 48.97 121.365 49.29C120.545 49.59 119.695 50.04 118.815 50.64L118.035 49.2C119.055 48.5 120.055 47.98 121.035 47.64C122.015 47.28 123.015 47.1 124.035 47.1C125.955 47.1 127.475 47.65 128.595 48.75C129.715 49.85 130.275 51.37 130.275 53.31V60.54C130.275 61.08 130.525 61.36 131.025 61.38V63C130.585 63.06 130.275 63.08 130.095 63.06C129.595 63.04 129.215 62.88 128.955 62.58C128.695 62.28 128.555 61.96 128.535 61.62L128.505 60.48C127.805 61.38 126.895 62.08 125.775 62.58C124.655 63.06 123.515 63.3 122.355 63.3C121.335 63.3 120.425 63.09 119.625 62.67C118.825 62.23 118.195 61.65 117.735 60.93C117.295 60.19 117.075 59.38 117.075 58.5ZM127.545 59.7C128.005 59.16 128.235 58.66 128.235 58.2V55.92C126.855 55.38 125.415 55.11 123.915 55.11C122.455 55.11 121.275 55.4 120.375 55.98C119.475 56.56 119.025 57.35 119.025 58.35C119.025 59.21 119.355 59.99 120.015 60.69C120.695 61.39 121.635 61.74 122.835 61.74C123.815 61.74 124.725 61.55 125.565 61.17C126.425 60.79 127.085 60.3 127.545 59.7ZM134.533 56.55V47.37H136.573V56.19C136.573 59.73 137.783 61.5 140.203 61.5C141.403 61.5 142.523 61.11 143.563 60.33C144.623 59.55 145.383 58.51 145.843 57.21V47.37H147.883V60.54C147.883 61.08 148.123 61.36 148.603 61.38V63C148.363 63.04 148.173 63.06 148.033 63.06C147.913 63.06 147.783 63.06 147.643 63.06C147.223 63.02 146.863 62.86 146.563 62.58C146.283 62.3 146.143 61.96 146.143 61.56L146.083 59.46C145.403 60.68 144.473 61.63 143.293 62.31C142.133 62.97 140.873 63.3 139.513 63.3C136.193 63.3 134.533 61.05 134.533 56.55ZM152.585 41.1H154.625V59.46C154.625 60.24 154.755 60.75 155.015 60.99C155.295 61.23 155.645 61.35 156.065 61.35C156.425 61.35 156.785 61.31 157.145 61.23C157.525 61.15 157.835 61.07 158.075 60.99L158.435 62.64C158.055 62.8 157.585 62.93 157.025 63.03C156.485 63.13 156.015 63.18 155.615 63.18C154.695 63.18 153.955 62.91 153.395 62.37C152.855 61.83 152.585 61.09 152.585 60.15V41.1ZM182.137 61.14V63H167.827V41.7H181.867V43.56H169.927V51.24H180.337V53.01H169.927V61.14H182.137ZM193.342 49.17C191.982 49.21 190.782 49.59 189.742 50.31C188.722 51.03 188.002 52.02 187.582 53.28V63H185.542V47.37H187.462V51.12C188.002 50.02 188.712 49.13 189.592 48.45C190.492 47.77 191.442 47.39 192.442 47.31C192.642 47.29 192.812 47.28 192.952 47.28C193.092 47.28 193.222 47.29 193.342 47.31V49.17ZM202.341 63.3C200.841 63.3 199.501 62.93 198.321 62.19C197.141 61.45 196.211 60.46 195.531 59.22C194.851 57.98 194.511 56.62 194.511 55.14C194.511 53.68 194.841 52.34 195.501 51.12C196.181 49.9 197.111 48.93 198.291 48.21C199.471 47.47 200.811 47.1 202.311 47.1C203.851 47.1 205.201 47.47 206.361 48.21C207.521 48.95 208.421 49.93 209.061 51.15C209.721 52.35 210.051 53.67 210.051 55.11C210.051 55.43 210.041 55.7 210.021 55.92H196.641C196.741 57.04 197.061 58.04 197.601 58.92C198.141 59.78 198.831 60.47 199.671 60.99C200.511 61.49 201.431 61.74 202.431 61.74C203.451 61.74 204.411 61.48 205.311 60.96C206.211 60.44 206.851 59.76 207.231 58.92L209.001 59.4C208.681 60.16 208.181 60.84 207.501 61.44C206.841 62.02 206.071 62.48 205.191 62.82C204.311 63.14 203.361 63.3 202.341 63.3ZM196.581 54.45H208.131C208.051 53.33 207.741 52.34 207.201 51.48C206.661 50.6 205.971 49.92 205.131 49.44C204.291 48.94 203.361 48.69 202.341 48.69C201.321 48.69 200.391 48.94 199.551 49.44C198.711 49.92 198.021 50.6 197.481 51.48C196.961 52.34 196.661 53.33 196.581 54.45ZM226.338 63H224.298V54.27C224.298 52.43 224.018 51.09 223.458 50.25C222.918 49.39 222.078 48.96 220.938 48.96C220.138 48.96 219.348 49.16 218.568 49.56C217.788 49.94 217.098 50.47 216.498 51.15C215.918 51.81 215.498 52.57 215.238 53.43V63H213.198V47.37H215.058V50.91C215.678 49.77 216.588 48.85 217.788 48.15C218.988 47.45 220.288 47.1 221.688 47.1C222.848 47.1 223.768 47.38 224.448 47.94C225.128 48.48 225.608 49.26 225.888 50.28C226.188 51.28 226.338 52.47 226.338 53.85V63ZM221.658 43.86C221.058 43.86 220.548 43.76 220.128 43.56C219.728 43.36 219.348 43.16 218.988 42.96C218.628 42.76 218.238 42.66 217.818 42.66C217.378 42.66 217.048 42.77 216.828 42.99C216.628 43.21 216.488 43.44 216.408 43.68C216.348 43.9 216.318 44.04 216.318 44.1H215.058C215.058 43.98 215.088 43.78 215.148 43.5C215.228 43.2 215.368 42.88 215.568 42.54C215.768 42.2 216.048 41.91 216.408 41.67C216.768 41.43 217.228 41.31 217.788 41.31C218.348 41.31 218.818 41.42 219.198 41.64C219.578 41.84 219.948 42.05 220.308 42.27C220.688 42.47 221.128 42.57 221.628 42.57C222.148 42.57 222.528 42.46 222.768 42.24C223.008 42 223.158 41.76 223.218 41.52C223.298 41.28 223.338 41.14 223.338 41.1H224.598C224.598 41.2 224.558 41.4 224.478 41.7C224.398 41.98 224.248 42.29 224.028 42.63C223.828 42.97 223.528 43.26 223.128 43.5C222.748 43.74 222.258 43.86 221.658 43.86ZM237.348 63.3C235.848 63.3 234.508 62.93 233.328 62.19C232.168 61.45 231.258 60.47 230.598 59.25C229.938 58.01 229.608 56.67 229.608 55.23C229.608 53.77 229.938 52.43 230.598 51.21C231.278 49.97 232.198 48.98 233.358 48.24C234.538 47.48 235.868 47.1 237.348 47.1C238.848 47.1 240.178 47.48 241.338 48.24C242.518 48.98 243.438 49.97 244.098 51.21C244.778 52.43 245.118 53.77 245.118 55.23C245.118 56.67 244.788 58.01 244.128 59.25C243.468 60.47 242.548 61.45 241.368 62.19C240.208 62.93 238.868 63.3 237.348 63.3ZM231.678 55.26C231.678 56.42 231.928 57.48 232.428 58.44C232.948 59.38 233.638 60.13 234.498 60.69C235.358 61.23 236.308 61.5 237.348 61.5C238.388 61.5 239.338 61.22 240.198 60.66C241.058 60.1 241.748 59.34 242.268 58.38C242.788 57.42 243.048 56.36 243.048 55.2C243.048 54.04 242.788 52.98 242.268 52.02C241.748 51.06 241.058 50.3 240.198 49.74C239.338 49.18 238.388 48.9 237.348 48.9C236.328 48.9 235.388 49.19 234.528 49.77C233.668 50.33 232.978 51.09 232.458 52.05C231.938 53.01 231.678 54.08 231.678 55.26Z" fill="white" />
</svg>